HIERARCHY
ROOT Model_Hips
{
	OFFSET 0.000000 96.915077 0.000000
	CHANNELS 6 Xposition Yposition Zposition Xrotation Yrotation Zrotation
	JOINT Model_Spine
	{
		OFFSET 0.000000 11.137703 -1.289900
		CHANNELS 3 Xrotation Yrotation Zrotation
		JOINT Model_Spine1
		{
			OFFSET 0.000000 12.993942 -1.504922
			CHANNELS 3 Xrotation Yrotation Zrotation
			JOINT Model_Spine2
			{
				OFFSET 0.000000 14.850220 -1.719911
				CHANNELS 3 Xrotation Yrotation Zrotation
				JOINT Model_Neck
				{
					OFFSET 0.000000 16.706543 -1.934903
					CHANNELS 3 Xrotation Yrotation Zrotation
					JOINT Model_Head
					{
						OFFSET 0.000000 10.471298 2.002100
						CHANNELS 3 Xrotation Yrotation Zrotation
						JOINT Model_HeadTop_End
						{
							OFFSET 0.000000 20.842606 3.985100
							CHANNELS 3 Xrotation Yrotation Zrotation
							End Site
							{
								OFFSET 0.000000 21.220154 0.000000
							}
						}
					}
				}
				JOINT Model_LeftShoulder
				{
					OFFSET 7.008500 14.768600 -1.919946
					CHANNELS 3 Xrotation Yrotation Zrotation
					JOINT Model_LeftArm
					{
						OFFSET 14.126271 -3.718048 0.029937
						CHANNELS 3 Xrotation Yrotation Zrotation
						JOINT Model_LeftForeArm
						{
							OFFSET 28.282801 0.000000 0.000000
							CHANNELS 3 Xrotation Yrotation Zrotation
							JOINT Model_LeftHand
							{
								OFFSET 26.204689 0.000000 0.000000
								CHANNELS 3 Xrotation Yrotation Zrotation
								End Site
								{
									OFFSET 26.204704 0.000000 0.000000
								}
							}
						}
					}
				}
				JOINT Model_RightShoulder
				{
					OFFSET -7.008500 14.768555 -1.949840
					CHANNELS 3 Xrotation Yrotation Zrotation
					JOINT Model_RightArm
					{
						OFFSET -14.126281 -3.718018 -0.029932
						CHANNELS 3 Xrotation Yrotation Zrotation
						JOINT Model_RightForeArm
						{
							OFFSET -28.283798 0.000000 -0.000001
							CHANNELS 3 Xrotation Yrotation Zrotation
							JOINT Model_RightHand
							{
								OFFSET -26.204193 0.000000 -0.000001
								CHANNELS 3 Xrotation Yrotation Zrotation
								End Site
								{
									OFFSET -26.204208 0.000000 -0.000001
								}
							}
						}
					}
				}
			}
		}
	}
	JOINT Model_LeftUpLeg
	{
		OFFSET 8.327700 -6.193199 -0.402800
		CHANNELS 3 Xrotation Yrotation Zrotation
		JOINT Model_LeftLeg
		{
			OFFSET 0.735802 -42.108742 -0.610721
			CHANNELS 3 Xrotation Yrotation Zrotation
			JOINT Model_LeftFoot
			{
				OFFSET -0.735806 -36.833748 -0.172876
				CHANNELS 3 Xrotation Yrotation Zrotation
				JOINT Model_LeftToeBase
				{
					OFFSET -0.565857 -11.977769 16.297714
					CHANNELS 3 Xrotation Yrotation Zrotation
					JOINT Model_LeftToe_End
					{
						OFFSET -0.111712 -0.312793 7.857784
						CHANNELS 3 Xrotation Yrotation Zrotation
						End Site
						{
							OFFSET -0.111712 -0.312793 7.857784
						}
					}
				}
			}
		}
	}
	JOINT Model_RightUpLeg
	{
		OFFSET -8.327700 -6.193199 -0.516500
		CHANNELS 3 Xrotation Yrotation Zrotation
		JOINT Model_RightLeg
		{
			OFFSET -0.735785 -42.108738 -0.434061
			CHANNELS 3 Xrotation Yrotation Zrotation
			JOINT Model_RightFoot
			{
				OFFSET 0.735776 -36.833748 -0.021630
				CHANNELS 3 Xrotation Yrotation Zrotation
				JOINT Model_RightToeBase
				{
					OFFSET 0.565817 -11.977745 15.903093
					CHANNELS 3 Xrotation Yrotation Zrotation
					JOINT Model_RightToe_End
					{
						OFFSET 0.111702 -0.312791 7.811342
						CHANNELS 3 Xrotation Yrotation Zrotation
						End Site
						{
							OFFSET 0.111702 -0.312791 7.811342
						}
					}
				}
			}
		}
	}
}
MOTION
Frames: 13
Frame Time: 0.016667
0.624747 89.466339 153.399704 3.637206 5.959933 -0.641995 5.530123 -0.979294 -0.845770 11.065957 -2.069817 -0.664364 11.065952 -2.069816 -0.664365 -2.677264 -0.646788 0.863547 -2.677258 -0.646787 0.863546 -0.000000 -0.000000 -0.000000 0.856195 -5.892076 -10.594345 -5.653346 0.857082 -57.551474 -226.545722 -91.866208 -238.143725 0.000001 -0.000001 0.000002 0.803404 3.870355 8.687181 16.111786 -14.838273 59.806263 -3.950196 73.740539 15.427283 -0.000000 -0.000003 0.000000 -8.758434 0.618890 -3.720497 42.608270 -3.460596 0.746112 -37.011839 -1.607588 5.531276 -4.642433 -4.432015 -1.699578 0.000000 0.000000 -0.000000 -38.992945 -1.526620 -7.310313 105.591535 0.790598 3.492441 1.263508 0.231008 2.405664 -14.174981 10.711175 -5.279276 -0.000001 0.000000 0.000000 
0.573396 90.427925 160.463348 4.124160 5.440652 -1.738317 5.462685 -1.679548 -0.251181 10.945815 -3.392408 0.210082 10.945831 -3.392408 0.210081 -2.751184 -0.362434 0.719558 -2.751190 -0.362432 0.719562 -0.000001 0.000000 -0.000000 0.869911 -6.257126 -10.432539 -7.196292 0.888029 -58.262388 -301.100420 -92.605303 -311.027581 -0.000000 -0.000000 0.000002 0.747457 2.946116 8.953907 18.710321 -17.315440 58.682950 -1.691378 73.480350 14.420396 -0.000002 -0.000001 -0.000000 0.866161 1.639528 -2.165663 31.230890 -4.439599 1.622161 -34.563851 -1.144081 4.686840 -5.332428 -4.137529 0.049779 -0.000000 -0.000000 -0.000000 -43.930332 -2.088914 -6.003584 99.560007 -0.058418 3.322660 1.049456 0.106326 0.244065 -14.100831 9.102697 -5.122678 -0.000000 -0.000001 0.000000 
0.608855 91.860909 168.048019 4.634727 4.850726 -2.932772 5.256543 -2.286150 0.626426 10.551396 -4.546375 1.479643 10.551403 -4.546375 1.479641 -2.470585 0.272661 -0.406637 -2.470599 0.272659 -0.406639 0.000000 0.000000 0.000000 0.886657 -6.427185 -10.299883 -8.335948 1.363736 -58.399620 -326.340674 -95.361838 -334.540507 -0.000001 0.000001 0.000003 0.843725 1.607264 7.219739 21.920254 -20.726463 57.297323 0.818055 74.214383 12.908671 -0.000001 -0.000001 -0.000000 10.493745 3.566395 -0.521378 17.963923 -6.326597 1.699708 -25.851383 -0.660366 4.230981 -11.003519 -4.085502 2.940981 -0.000000 0.000000 -0.000000 -47.528018 -2.656144 -4.861099 91.292083 -2.254810 3.545860 -0.471482 0.144684 1.118274 -12.350338 10.819130 -5.076514 0.000003 0.000000 0.000000 
0.577107 92.893204 175.376923 5.179302 3.353926 -3.767827 5.027717 -2.758695 1.121732 10.110816 -5.557017 2.231551 10.110814 -5.557019 2.231551 -2.479430 0.578817 -0.431295 -2.479431 0.578815 -0.431294 0.000001 0.000000 0.000000 0.899293 -6.430101 -10.227944 -9.189157 2.169634 -58.025210 -335.838981 -98.722735 -342.319273 -0.000000 -0.000001 0.000001 0.842250 1.104237 6.900022 24.682010 -23.583120 56.352797 1.394197 75.673940 12.958039 -0.000001 -0.000001 -0.000001 13.506043 5.428915 0.311316 17.560538 -6.152899 1.715151 -16.325979 -0.070036 3.849362 -28.168950 -5.007998 1.787274 0.000001 0.000000 0.000000 -49.839071 -2.684945 -2.831434 82.492347 -2.418259 3.256973 -2.107060 0.155539 -0.038150 -11.207685 9.960514 -4.701235 -0.000000 0.000000 0.000000 
0.522006 93.928528 182.658905 5.967366 1.289603 -4.438197 4.787118 -3.197068 1.491116 9.655201 -6.602619 2.890852 9.655211 -6.602618 2.890850 -2.809902 0.931144 -0.253933 -2.809936 0.931151 -0.253934 -0.000001 -0.000000 -0.000000 0.904644 -6.313659 -10.226526 -9.855674 3.169321 -57.276839 -341.002139 -102.345358 -345.837722 -0.000002 -0.000001 -0.000001 0.863839 1.298134 6.709628 26.933680 -26.161040 55.223872 -0.751546 76.888642 15.728669 -0.000000 -0.000000 0.000001 14.358031 8.161070 0.001231 18.235533 -6.180741 3.497241 -4.175687 0.337363 2.473962 -34.390313 -5.058094 0.352748 0.000000 0.000000 -0.000000 -51.256185 -2.590692 -0.463818 71.791251 -2.498209 2.871680 -2.870179 0.172631 -1.160758 -10.447328 9.432901 -4.525207 0.000001 0.000001 0.000000 
0.473026 94.948288 190.274170 7.115146 -0.243575 -4.839048 4.459250 -3.528051 1.831110 9.037078 -7.495410 3.617894 9.037077 -7.495411 3.617895 -2.968324 1.228212 -0.150433 -2.968311 1.228202 -0.150433 0.000001 -0.000000 -0.000000 0.902768 -6.136855 -10.286489 -10.394108 4.227903 -56.333587 -344.366144 -106.011619 -347.701653 -0.000000 0.000001 0.000003 0.919093 1.317896 5.963381 29.075203 -28.618737 54.686989 -4.221412 77.999210 19.268515 0.000000 0.000001 0.000001 14.154847 10.662662 0.841575 19.508231 -5.887721 3.388705 11.338930 0.127252 -1.872374 -43.468615 -7.297037 3.648602 -0.000000 0.000000 -0.000000 -51.698064 -2.499668 1.158632 58.966218 -4.115934 2.657293 -3.001456 0.122804 0.237211 -9.462976 10.258893 -4.634564 0.000000 0.000001 0.000000 
0.453734 95.676888 197.444946 8.148907 -0.883321 -4.896030 4.233180 -3.650369 2.105526 8.626440 -7.964554 4.321976 8.626440 -7.964553 4.321974 -3.243465 1.463075 -0.351161 -3.243464 1.463070 -0.351159 0.000002 0.000002 -0.000000 0.895459 -5.957828 -10.387736 -10.800448 5.241926 -55.382838 -346.773294 -109.530450 -348.823061 0.000000 0.000000 0.000001 0.940746 0.244944 4.655942 30.298128 -30.021994 54.765601 -5.428531 78.627000 19.985455 -0.000000 -0.000000 0.000001 14.869624 10.910464 0.492246 22.648390 -5.400816 4.289228 4.004854 0.164197 -2.305589 -11.300216 -8.105374 7.927204 0.000005 -0.000001 -0.000000 -50.513214 -2.727768 2.100102 45.235011 -6.037929 2.013239 -2.694329 0.051790 1.606393 -8.559506 10.777545 -4.720065 -0.000001 0.000000 -0.000000 
0.547947 95.798157 204.614410 8.703560 -1.078474 -4.309797 4.138401 -3.997543 2.096694 8.478395 -8.842981 4.534257 8.478401 -8.842990 4.534258 -3.304229 1.652615 -0.199372 -3.304177 1.652605 -0.199375 0.000002 0.000001 -0.000000 0.884703 -5.822439 -10.508312 -10.998928 6.162838 -54.591178 -348.564388 -112.743890 -349.605828 -0.000003 0.000000 -0.000000 0.886469 -0.604881 4.513728 31.098029 -30.630598 54.658661 -2.856342 79.437818 17.573804 0.000000 0.000000 0.000001 16.518049 9.542663 -1.003052 26.159623 -5.792749 5.330095 5.521865 0.091139 -1.589171 6.274642 -4.685655 -4.006193 0.000001 -0.000001 -0.000001 -47.981362 -2.782247 2.348050 30.875860 -8.401684 1.090498 -1.741221 -0.021881 1.915254 -8.204546 13.306417 -5.624209 -0.000001 0.000000 0.000000 
0.567667 95.735565 212.277130 8.357863 -1.006088 -3.733981 4.288048 -4.123959 2.021857 8.812985 -9.325583 4.654050 8.812984 -9.325588 4.654051 -3.603971 1.783950 -0.178517 -3.603962 1.783954 -0.178518 0.000001 -0.000001 0.000000 0.871946 -5.756120 -10.630891 -10.856409 7.000268 -54.081865 -349.879036 -115.535874 -350.239697 -0.000001 -0.000001 -0.000004 0.833012 -1.557407 4.153095 32.110656 -31.097325 55.632345 -0.071518 80.589272 14.244827 -0.000002 -0.000000 0.000000 16.945551 8.124156 -2.102174 34.595581 -6.068243 6.670957 3.344150 0.206062 -3.193442 3.427142 -4.442355 -4.762527 -0.000001 0.000002 0.000000 -45.277652 -2.841390 2.282570 20.254231 -7.053323 0.078144 -2.636030 -0.232003 4.858463 -7.905526 14.774917 -6.276820 -0.000001 0.000000 0.000000 
0.576403 95.478401 219.722778 7.584029 -1.104407 -3.333818 4.474915 -3.897285 1.990276 9.187780 -9.173068 4.659973 9.187778 -9.173066 4.659973 -3.462120 1.832769 -0.361588 -3.462120 1.832772 -0.361596 -0.000001 -0.000000 -0.000001 0.857980 -5.760925 -10.746125 -10.221653 7.800496 -53.925638 -350.761305 -117.831473 -350.801548 0.000000 -0.000000 0.000002 0.818132 -2.046136 3.448195 33.388212 -30.964465 57.984823 1.896357 81.350545 11.591009 -0.000002 0.000000 0.000001 17.340336 7.388000 -3.288754 42.533774 -4.550888 8.154408 2.574210 0.332548 -5.080048 -0.305129 -4.134417 -4.586131 -0.000003 0.000000 0.000000 -45.608779 -2.947299 1.928180 20.245186 -1.782908 0.101009 -8.495079 -0.386527 4.360410 -7.072219 12.929649 -5.691451 0.000003 -0.000001 0.000000 
0.573102 95.140923 227.157257 6.782825 -1.430359 -2.915898 4.618553 -3.580861 1.927130 9.464018 -8.781658 4.575519 9.464008 -8.781657 4.575513 -3.067134 1.779710 -0.538928 -3.067142 1.779705 -0.538920 -0.000001 0.000000 -0.000001 0.843613 -5.817460 -10.849822 -8.977530 8.609388 -54.148408 -351.209365 -119.584714 -351.302010 0.000001 -0.000000 -0.000001 0.804660 -2.062728 3.402645 34.350073 -31.000210 59.566899 0.745373 82.456769 12.046832 0.000001 -0.000000 0.000001 17.099645 7.483657 -3.977203 50.114355 -2.336124 8.325220 3.213027 0.337698 -6.237440 -2.722643 -3.848364 -4.539419 -0.000001 -0.000001 0.000001 -44.891374 -3.052991 1.870775 19.903897 2.400360 -0.188752 -12.081709 -0.750037 5.933670 -6.505626 13.470651 -5.972273 -0.000000 0.000002 0.000000 
0.518734 94.630135 234.865097 6.401330 -1.431834 -2.757811 4.693559 -3.247987 1.876842 9.601173 -8.253295 4.527458 9.601171 -8.253293 4.527457 -3.016366 1.638550 -0.499484 -3.016366 1.638560 -0.499489 -0.000000 -0.000000 0.000000 0.830404 -5.890858 -10.938062 -7.085078 9.438695 -54.748744 -351.203245 -120.762512 -351.713543 0.000000 -0.000001 -0.000002 0.785849 -2.128563 4.005443 34.149074 -30.148523 60.090133 -2.100297 83.615797 14.560083 -0.000001 0.000000 -0.000001 15.265937 8.151233 -3.591754 58.348715 1.002420 8.014859 2.973108 0.389924 -7.301690 -2.378068 -3.602532 -4.672010 0.000001 0.000000 0.000001 -43.591459 -3.144435 1.837481 19.308123 4.517378 -0.378385 -13.380005 -1.253597 8.527381 -6.429091 14.619462 -6.622411 -0.000001 0.000000 -0.000001 
0.535137 93.891457 241.924713 6.396770 -1.335025 -2.513626 4.680921 -3.011439 1.805890 9.566992 -7.788296 4.482441 9.566987 -7.788300 4.482444 -2.801249 1.547775 -0.580368 -2.801243 1.547764 -0.580360 -0.000002 -0.000001 0.000000 0.820761 -5.938070 -11.001597 -4.601723 10.252545 -55.707416 -350.728766 -121.332314 -351.994236 -0.000003 0.000000 -0.000000 0.787943 -1.794085 4.445902 33.256676 -29.221957 59.836043 -4.368762 85.154591 16.609529 0.000000 -0.000001 -0.000002 12.470641 8.656032 -3.073971 66.468129 4.206958 7.361195 0.856306 0.614769 -8.726681 -2.077810 -3.281740 -4.398940 0.000001 -0.000000 0.000001 -41.558597 -3.349353 1.567262 18.179436 3.835024 -0.248449 -13.277678 -1.587559 10.496102 -6.819282 16.770882 -7.781679 -0.000004 0.000002 0.000001 
